0
SECTION
2
HEADER
9
$INSUNITS
70
4
9
$ACADVER
1
AC1014
9
$HANDSEED
5
FFFF
0
ENDSEC
0
SECTION
2
TABLES
0
TABLE
2
VPORT
5
8
100
AcDbSymbolTable
0
ENDTAB
0
TABLE
2
LTYPE
5
5
100
AcDbSymbolTable
0
LTYPE
5
14
100
AcDbSymbolTableRecord
100
AcDbLinetypeTableRecord
2
BYBLOCK
70
0
0
LTYPE
5
15
100
AcDbSymbolTableRecord
100
AcDbLinetypeTableRecord
2
BYLAYER
70
0
0
ENDTAB
0
TABLE
2
LAYER
5
2
100
AcDbSymbolTable
70
2
0
LAYER
5
50
100
AcDbSymbolTableRecord
100
AcDbLayerTableRecord
2
0
70
0
6
CONTINUOUS
0
ENDTAB
0
TABLE
2
STYLE
5
3
100
AcDbSymbolTable
70
1
0
STYLE
5
11
100
AcDbSymbolTableRecord
100
AcDbTextStyleTableRecord
2
STANDARD
70
0
0
ENDTAB
0
TABLE
2
VIEW
5
6
100
AcDbSymbolTable
70
0
0
ENDTAB
0
TABLE
2
UCS
5
7
100
AcDbSymbolTable
70
0
0
ENDTAB
0
TABLE
2
APPID
5
9
100
AcDbSymbolTable
70
2
0
APPID
5
12
100
AcDbSymbolTableRecord
100
AcDbRegAppTableRecord
2
ACAD
70
0
0
ENDTAB
0
TABLE
2
DIMSTYLE
5
A
100
AcDbSymbolTable
70
1
0
ENDTAB
0
TABLE
2
BLOCK_RECORD
5
1
100
AcDbSymbolTable
70
1
0
BLOCK_RECORD
5
1F
100
AcDbSymbolTableRecord
100
AcDbBlockTableRecord
2
*MODEL_SPACE
0
BLOCK_RECORD
5
1B
100
AcDbSymbolTableRecord
100
AcDbBlockTableRecord
2
*PAPER_SPACE
0
ENDTAB
0
ENDSEC
0
SECTION
2
BLOCKS
0
BLOCK
5
20
100
AcDbEntity
100
AcDbBlockBegin
2
*MODEL_SPACE
0
ENDBLK
5
21
100
AcDbEntity
100
AcDbBlockEnd
0
BLOCK
5
1C
100
AcDbEntity
100
AcDbBlockBegin
2
*PAPER_SPACE
0
ENDBLK
5
1D
100
AcDbEntity
100
AcDbBlockEnd
0
ENDSEC
0
SECTION
2
ENTITIES
0
LWPOLYLINE
5
100
100
AcDbEntity
8
0
100
AcDbPolyline
90
40
70
1
43
0.0
10
82.000001221895218
20
0
10
85
20
0
42
0.41421356237309326
10
90
20
4.9999999999999982
10
90
20
26.000000387430191
10
81.000001192092896
20
26.000000387430198
42
-0.41421356237309503
10
80.000001192092896
20
27.000000387430198
10
80.000001192092896
20
42.996089122037617
42
-0.41421356237309243
10
81.000001192092896
20
43.996089122037603
10
90
20
43.996089122037603
10
90
20
54.999999999999993
42
0.41421356237309609
10
84.999999999999986
20
59.999999999999986
10
67.0000009983778
20
59.999999999999986
10
67.0000009983778
20
51.000000745058045
42
-0.41421356237309243
10
66.0000009983778
20
50.00000074505806
10
54.012331545079675
20
50.00000074505806
42
-0.41421356237309764
10
53.012331545079675
20
51.00000074505806
10
53.012331545079675
20
59.999999999999986
10
48.000000715255737
20
59.999999999999986
10
48.000000715255737
20
51.00000074505806
42
-0.41421356237309503
10
47.000000715255737
20
50.00000074505806
10
35.808212471504184
20
50.00000074505806
42
-0.41421356237310025
10
34.808212471504177
20
51.00000074505806
10
34.808212471504177
20
59.999999999999986
10
5.0000000000000089
20
59.999999999999993
42
0.41421356237309503
10
8.8817841970012523e-15
20
54.999999999999993
10
8.8817841970012523e-15
20
40.14881827044286
10
16.00000025331974
20
40.14881827044286
42
-0.41421356237309176
10
17.00000025331974
20
39.14881827044286
10
17.000000253319744
20
33.000000476837158
42
0.41421356237309048
10
18.00000025331974
20
32.000000476837158
10
19.000000298023224
20
32.000000476837158
42
-0.41421356237309048
10
20.000000298023224
20
31.000000476837162
10
20.000000298023224
20
28.000000402331352
42
0.41421356237308982
10
21.000000298023224
20
27.000000402331352
10
30.000000461935997
20
27.000000402331352
42
-0.41421356237308982
10
31.000000461935997
20
26.000000402331352
10
31.000000461935997
20
16.000000223517418
42
0.41421356237309115
10
32.000000461935997
20
15.00000022351742
10
81.000001221895218
20
15.000000223517411
42
-0.41421356237309437
10
82.000001221895218
20
14.000000223517418
0
CIRCLE
5
101
100
AcDbEntity
8
0
100
AcDbCircle
10
5.0000000000000089
20
54.999999999999993
30
0
40
1.5500000000000014
210
0
220
0
230
1
0
CIRCLE
5
102
100
AcDbEntity
8
0
100
AcDbCircle
10
85
20
54.999999999999993
30
0
40
1.5500000000000014
210
0
220
0
230
1
0
CIRCLE
5
103
100
AcDbEntity
8
0
100
AcDbCircle
10
84.999999999999986
20
5.0000000000000107
30
0
40
1.5500000000000027
210
0
220
0
230
1
0
LWPOLYLINE
5
104
100
AcDbEntity
8
0
100
AcDbPolyline
90
8
70
1
43
0.0
10
73.000001087784767
20
50.000000759959214
10
73.000001087784767
20
46.000000670552254
42
0.41421356237309503
10
74.000001087784767
20
45.000000670552254
10
85.000001281499863
20
45.000000670552254
42
0.41421356237309503
10
86.000001281499863
20
46.000000670552254
10
86.000001281499863
20
50.000000759959214
42
0.41421356237309503
10
85.000001281499863
20
51.000000759959221
10
74.000001087784767
20
51.000000759959221
42
0.41421356237309764
0
LWPOLYLINE
5
105
100
AcDbEntity
8
0
100
AcDbPolyline
90
8
70
1
43
0.0
10
74.000001087784767
20
24.000000357627869
10
84.000001266598701
20
24.000000357627869
42
-0.41421356237309631
10
85.000001266598701
20
23.000000357627869
10
85.000001266598701
20
20.000000283122063
42
-0.41421356237309503
10
84.000001266598701
20
19.000000283122066
10
74.000001087784767
20
19.000000283122063
42
-0.41421356237309631
10
73.000001087784767
20
20.000000283122063
10
73.000001087784767
20
23.000000357627869
42
-0.41421356237310025
0
LWPOLYLINE
5
106
100
AcDbEntity
8
0
100
AcDbPolyline
90
8
70
1
43
0.0
10
23.000000342726707
20
39.000000596046448
10
23.000000342726707
20
33.000000476837158
42
0.41421356237309631
10
24.000000342726715
20
32.000000476837165
10
33.000000506639481
20
32.000000476837158
42
0.41421356237308982
10
34.000000506639481
20
33.000000476837158
10
34.000000506639481
20
39.000000596046448
42
0.41421356237309243
10
33.000000506639488
20
40.000000596046455
10
24.000000342726707
20
40.000000596046448
42
0.41421356237309503
0
ENDSEC
0
SECTION
2
OBJECTS
0
DICTIONARY
5
C
100
AcDbDictionary
3
ACAD_GROUP
350
D
3
ACAD_MLINESTYLE
350
17
0
DICTIONARY
5
D
100
AcDbDictionary
0
DICTIONARY
5
1A
330
C
100
AcDbDictionary
0
DICTIONARY
5
17
100
AcDbDictionary
0
ENDSEC
0
EOF
